<?xml version="1.0" standalone="no"?>
<!DOCTYPE svg PUBLIC "-//W3C//DTD SVG 20010904//EN"
 "http://www.w3.org/TR/2001/REC-SVG-20010904/DTD/svg10.dtd">
<svg version="1.0" xmlns="http://www.w3.org/2000/svg"
 width="1400.000000pt" height="1400.000000pt" viewBox="0 0 1400.000000 1400.000000"
 preserveAspectRatio="xMidYMid meet">
<metadata>
Created by potrace 1.15, written by Peter Selinger 2001-2017
</metadata>
<g transform="translate(0.000000,1400.000000) scale(0.100000,-0.100000)"
fill="#000000" stroke="none">
<path d="M2040 13989 c0 -11 -71 -118 -93 -140 -7 -8 -20 -29 -28 -46 -7 -18
-17 -33 -20 -33 -4 0 -12 -13 -19 -30 -7 -16 -16 -30 -21 -30 -5 0 -9 -6 -9
-13 0 -7 -11 -24 -25 -39 -14 -15 -25 -34 -25 -43 0 -8 -4 -15 -10 -15 -5 0
-10 -5 -10 -10 0 -6 -11 -23 -24 -37 -13 -14 -37 -51 -53 -82 -52 -99 -86
-156 -95 -159 -4 -2 -8 -12 -8 -23 0 -10 -4 -19 -10 -19 -5 0 -10 -6 -10 -14
0 -14 -65 -143 -81 -161 -5 -5 -9 -19 -9 -32 0 -13 -3 -23 -7 -23 -9 0 -33
-49 -33 -67 0 -7 -4 -13 -10 -13 -5 0 -10 -5 -10 -10 0 -6 -11 -33 -25 -62
-14 -28 -25 -58 -25 -65 0 -7 -4 -13 -10 -13 -5 0 -10 -7 -10 -15 0 -8 -4 -23
-9 -33 -5 -9 -26 -53 -46 -97 -20 -44 -41 -88 -46 -97 -5 -10 -9 -24 -9 -31 0
-7 -13 -41 -30 -75 -17 -34 -30 -65 -30 -68 0 -3 -7 -22 -16 -42 -16 -38 -29
-67 -47 -112 -15 -37 -39 -92 -48 -112 -5 -10 -9 -23 -9 -28 0 -6 -9 -30 -20
-52 -11 -23 -20 -50 -20 -60 0 -10 -4 -18 -10 -18 -5 0 -10 -13 -10 -29 0 -17
-4 -32 -9 -36 -5 -3 -12 -19 -16 -35 -4 -17 -11 -30 -16 -30 -5 0 -9 -9 -9
-20 0 -11 -4 -28 -9 -38 -5 -9 -15 -37 -22 -62 -7 -25 -16 -49 -21 -54 -4 -6
-8 -20 -8 -32 0 -13 -4 -26 -10 -29 -5 -3 -10 -14 -10 -23 0 -9 -7 -30 -15
-46 -8 -15 -15 -36 -15 -45 0 -9 -9 -41 -20 -71 -11 -30 -20 -65 -20 -77 0
-12 -4 -25 -10 -28 -5 -3 -10 -17 -10 -31 0 -24 -22 -106 -40 -149 -9 -21 -18
-59 -27 -113 -3 -18 -9 -35 -14 -38 -5 -3 -9 -16 -9 -29 0 -26 -19 -101 -45
-180 -15 -45 -25 -87 -42 -183 -3 -18 -9 -35 -14 -38 -5 -3 -9 -18 -9 -34 0
-16 -4 -31 -9 -34 -5 -3 -11 -20 -14 -38 -11 -64 -32 -147 -40 -154 -4 -4 -7
-20 -7 -35 0 -15 -4 -31 -10 -34 -6 -3 -10 -19 -10 -35 0 -16 -4 -32 -10 -35
-5 -3 -10 -17 -10 -30 0 -29 -19 -113 -30 -136 -5 -9 -12 -33 -15 -53 -4 -20
-11 -39 -16 -42 -5 -3 -9 -18 -9 -34 0 -16 -4 -31 -9 -34 -5 -3 -11 -29 -14
-58 -3 -29 -11 -73 -17 -98 -6 -25 -15 -65 -20 -90 -4 -25 -15 -70 -24 -100
-10 -30 -20 -79 -23 -108 -3 -29 -9 -55 -14 -58 -5 -3 -9 -23 -9 -44 0 -21 -4
-41 -9 -44 -5 -3 -11 -23 -15 -43 -16 -109 -25 -153 -41 -208 -10 -33 -20 -77
-22 -98 -3 -20 -9 -40 -14 -43 -5 -3 -9 -19 -9 -36 0 -18 -4 -45 -9 -62 -6
-17 -22 -83 -36 -147 -25 -110 -26 -118 -11 -154 9 -21 26 -46 39 -56 12 -10
27 -23 34 -29 7 -5 22 -10 34 -10 13 0 36 -4 53 -9 17 -5 51 -15 76 -22 25 -7
49 -16 54 -21 6 -4 16 -8 24 -8 21 0 105 -66 180 -142 36 -35 116 -89 177
-118 17 -8 42 -22 57 -32 14 -10 37 -18 50 -18 13 0 29 -5 35 -11 15 -15 192
-16 220 -1 26 15 159 16 168 2 3 -5 19 -10 34 -10 30 0 102 -44 158 -97 18
-17 63 -43 100 -58 38 -15 76 -31 85 -36 10 -5 33 -9 52 -9 19 0 38 -4 41 -10
3 -5 17 -10 31 -10 34 0 82 -26 111 -61 14 -16 29 -29 35 -29 5 0 16 -7 24
-15 18 -18 100 -42 173 -50 57 -7 86 -19 112 -47 9 -10 20 -18 24 -18 12 0 45
-42 50 -64 15 -71 25 -325 24 -639 -1 -414 -22 -988 -39 -1062 -6 -27 -14 -72
-17 -100 -3 -27 -9 -55 -13 -60 -5 -6 -16 -66 -24 -135 -17 -125 -30 -190 -47
-222 -5 -10 -9 -25 -9 -33 0 -8 -4 -23 -9 -33 -5 -9 -14 -39 -20 -67 -10 -44
-22 -76 -52 -137 -5 -10 -9 -28 -9 -41 0 -13 -4 -27 -9 -33 -16 -15 -31 -123
-31 -214 0 -55 -4 -90 -12 -99 -18 -17 -17 -376 0 -393 7 -7 12 -20 12 -30 0
-17 2 -17 49 1 49 18 101 60 101 81 0 6 12 23 26 38 32 34 78 101 88 127 7 20
7 20 19 0 7 -12 11 -93 13 -215 1 -160 -1 -199 -14 -220 -12 -18 -16 -59 -17
-170 -2 -127 1 -154 22 -220 12 -41 23 -87 23 -102 0 -16 5 -28 10 -28 6 0 10
-13 10 -29 0 -39 62 -119 96 -123 25 -3 46 -29 86 -106 6 -12 15 -22 20 -22 5
0 13 -11 18 -25 5 -14 16 -25 25 -25 8 0 15 -4 15 -9 0 -5 16 -16 36 -26 19
-9 48 -30 63 -46 16 -16 33 -29 40 -29 6 0 11 -4 11 -10 0 -5 9 -10 19 -10 11
0 23 -4 26 -10 3 -5 23 -10 44 -10 25 0 45 -7 61 -22 24 -22 31 -23 210 -23
176 0 187 2 217 23 17 12 37 22 45 22 27 1 46 25 41 53 -7 33 12 57 43 57 25
0 64 -18 76 -35 33 -49 30 -48 134 -46 98 2 139 9 202 38 23 10 31 20 28 31
-2 9 -7 38 -11 64 -3 25 -17 69 -30 97 -14 28 -25 55 -25 60 0 5 -13 35 -30
66 -16 31 -30 66 -30 76 0 10 -4 19 -10 19 -5 0 -10 12 -10 28 0 26 -33 85
-72 126 -10 11 -18 28 -18 38 0 10 -9 26 -20 35 -11 10 -20 25 -20 35 0 17
-13 33 -49 58 -15 10 -21 25 -21 51 0 47 -29 76 -57 58 -14 -8 -25 -9 -38 -1
-13 7 -26 7 -41 0 -18 -8 -32 -7 -59 6 -20 10 -43 15 -51 12 -15 -6 -19 3 -42
72 -9 27 -8 34 4 39 21 8 17 41 -6 53 -20 11 -28 50 -10 50 6 0 10 -9 10 -20
0 -11 5 -20 10 -20 21 0 9 42 -20 73 -16 18 -30 40 -30 50 0 9 -4 17 -10 17
-5 0 -10 8 -10 17 0 30 -34 92 -50 90 -10 -1 -14 5 -12 22 1 14 5 27 7 30 9 9
55 -22 55 -38 1 -21 28 -56 37 -47 4 4 -7 35 -25 69 -18 34 -32 67 -32 73 0 6
-9 23 -21 38 -11 14 -17 26 -13 26 5 0 3 5 -4 12 -7 7 -12 28 -12 47 l0 36 18
-30 c11 -16 26 -36 35 -44 15 -12 17 -10 17 23 0 20 -3 36 -8 36 -4 0 -13 15
-21 32 -8 18 -23 43 -33 55 -11 12 -18 26 -15 30 3 5 -5 22 -19 38 -13 15 -24
36 -24 45 0 9 -3 20 -7 24 -22 21 -10 135 18 164 29 32 21 60 -9 30 -7 -7 -12
-8 -12 -2 0 6 5 15 11 21 7 7 14 49 16 95 3 53 9 87 17 93 8 6 15 19 17 30 3
11 11 20 19 20 10 0 15 10 15 30 0 17 6 49 13 73 7 23 10 48 5 55 -5 8 -9 3
-14 -13 -7 -23 -7 -23 -8 6 -1 18 -7 34 -16 38 -9 3 -12 12 -8 22 4 10 0 22
-8 28 -9 6 -18 19 -22 29 -8 21 2 49 14 41 27 -16 -7 51 -43 88 -22 22 -23 67
-3 74 15 6 18 64 4 64 -26 0 -47 240 -27 297 9 25 9 36 0 45 -8 8 -12 47 -12
110 0 59 -4 98 -10 98 -6 0 -10 35 -10 85 0 46 -7 131 -15 187 -17 114 -37
339 -36 405 1 23 -3 45 -9 48 -6 3 -10 49 -10 104 0 55 -5 102 -11 108 -5 5
-9 30 -7 54 l3 44 115 -2 c63 -1 214 3 336 7 218 8 238 12 316 51 10 5 53 9
97 9 95 0 94 3 91 -138 -12 -632 -12 -675 1 -700 10 -18 14 -68 14 -174 0 -81
3 -148 7 -148 32 0 37 -251 6 -300 -22 -34 -38 -127 -38 -222 0 -43 -4 -78 -9
-78 -12 0 -19 -64 -27 -230 -3 -74 -10 -140 -14 -145 -5 -6 -12 -34 -16 -63
-4 -29 -11 -55 -15 -58 -5 -3 -9 -16 -9 -30 0 -13 -4 -24 -9 -24 -5 0 -11 -15
-14 -32 -3 -18 -11 -51 -17 -73 -7 -22 -16 -96 -22 -165 -15 -202 12 -266 130
-307 31 -10 37 -10 48 5 8 9 14 26 14 37 1 28 24 112 33 121 4 4 7 14 7 23 0
9 7 29 15 45 8 15 15 34 15 41 0 7 6 23 13 36 31 57 42 69 69 69 26 0 28 -3
28 -44 0 -25 5 -48 10 -51 6 -3 10 -14 10 -24 0 -25 38 -150 55 -184 8 -16 15
-36 15 -46 0 -9 5 -22 12 -29 8 -8 12 -80 14 -233 2 -122 6 -224 9 -227 3 -3
5 -13 5 -23 0 -9 16 -45 35 -79 19 -34 35 -64 35 -67 0 -2 17 -26 38 -51 20
-26 44 -55 52 -65 8 -11 25 -30 38 -43 12 -13 22 -27 22 -32 0 -13 76 -81 140
-126 30 -22 57 -43 58 -48 2 -4 15 -8 28 -8 13 0 24 -4 24 -10 0 -5 11 -10 24
-10 14 0 27 -4 31 -9 11 -19 130 -49 180 -46 36 2 57 -2 76 -16 23 -16 45 -19
132 -19 60 0 109 -4 112 -10 3 -5 23 -10 44 -10 20 0 42 -5 49 -12 9 -9 18 -9
37 0 17 8 89 12 205 12 108 0 181 4 185 10 3 6 28 10 56 10 42 0 49 3 49 19 0
31 28 51 70 51 21 0 42 5 45 10 3 6 22 10 41 10 34 0 58 24 38 39 -12 8 -29
35 -55 88 -11 23 -27 47 -35 54 -8 6 -14 18 -14 25 0 8 -7 14 -15 14 -18 0
-75 52 -75 68 0 6 -9 16 -20 22 -11 6 -20 16 -20 22 0 12 -69 78 -82 78 -4 0
-8 6 -8 13 0 6 -16 23 -35 36 -19 13 -35 31 -35 40 0 9 -15 23 -33 31 -17 8
-36 25 -42 38 -5 12 -18 22 -27 22 -10 0 -18 4 -18 8 0 5 -16 27 -36 49 -26
29 -38 53 -40 79 -4 45 -41 84 -78 84 -29 0 -76 -36 -76 -57 0 -26 -20 -2 -21
25 0 26 -1 26 -9 5 -11 -28 -26 -29 -40 -3 -14 27 -30 26 -22 -2 3 -14 2 -19
-6 -14 -7 4 -12 14 -12 22 0 8 -4 14 -10 14 -5 0 -10 5 -10 11 0 6 8 8 20 4
15 -5 21 0 26 19 6 26 -1 46 -17 46 -5 0 -9 -12 -9 -27 l0 -27 -16 22 c-11 16
-14 34 -9 62 5 28 2 46 -9 62 -12 16 -15 36 -11 68 3 25 2 51 -3 58 -13 19
-43 3 -41 -22 6 -81 -11 -83 -31 -2 -7 31 -16 53 -20 51 -10 -6 -23 62 -15 75
4 6 4 24 0 39 -8 37 -35 49 -42 20 -4 -15 -8 -17 -13 -8 -5 7 -2 18 5 25 7 8
16 19 19 26 5 10 7 10 12 0 7 -15 24 -6 24 12 0 8 -16 31 -35 52 -39 42 -40
46 -22 75 10 17 9 22 -5 33 -10 7 -18 18 -18 25 0 6 -5 11 -11 11 -12 0 -38
29 -39 43 0 4 9 7 20 7 20 0 21 13 7 50 -12 32 -20 76 -18 100 1 14 -8 56 -19
95 -11 38 -20 82 -20 97 0 16 -4 28 -10 28 -5 0 -10 12 -10 26 0 14 -4 33 -10
43 -14 27 -14 374 0 401 7 14 8 25 2 33 -11 13 -17 62 -31 242 -9 112 -13 138
-40 240 -6 22 -11 57 -11 78 0 20 -4 37 -9 37 -12 0 -22 51 -27 140 -3 41 -9
84 -14 95 -14 30 -21 151 -26 470 -3 199 -1 298 6 316 11 26 16 27 93 31 52 2
82 8 85 16 2 6 10 12 18 12 8 0 14 5 14 10 0 6 13 10 28 10 15 0 32 4 38 9 5
5 72 11 149 14 138 5 492 31 570 43 82 12 125 32 137 65 8 20 110 69 144 69
12 0 25 4 28 9 3 5 23 11 43 14 36 6 88 15 193 36 25 5 81 18 124 30 44 11 81
21 83 21 2 0 3 66 3 148 -1 81 -1 154 0 162 0 10 18 21 48 29 93 26 117 34
134 42 10 5 26 9 37 9 21 0 84 30 89 43 2 4 12 7 23 7 10 0 19 5 19 10 0 6 6
10 13 10 17 0 69 50 86 81 8 17 11 42 8 65 -14 88 -20 114 -28 120 -5 3 -9 24
-9 47 0 23 -5 58 -10 77 -9 31 -30 153 -61 355 -5 33 -14 98 -19 145 -13 118
-24 199 -55 390 -15 91 -29 182 -32 203 -3 20 -9 40 -14 43 -5 3 -9 23 -9 45
0 21 -4 39 -10 39 -5 0 -10 12 -10 26 0 24 -22 105 -40 149 -14 33 -22 76 -29
160 -5 58 -14 94 -33 130 -33 61 -53 107 -68 160 -7 22 -16 48 -21 57 -5 10
-9 25 -9 33 0 8 -4 23 -9 33 -20 37 -61 144 -61 158 0 8 -4 23 -10 34 -5 11
-14 29 -20 40 -5 11 -10 29 -10 39 0 11 -4 23 -10 26 -5 3 -10 16 -10 28 0 12
-12 47 -26 77 -15 30 -31 66 -36 80 -6 14 -14 33 -19 42 -5 10 -9 25 -9 33 0
8 -4 23 -9 33 -21 39 -61 133 -61 142 0 6 -4 18 -9 28 -5 9 -14 29 -20 45 -6
15 -16 39 -22 55 -6 15 -15 34 -19 42 -4 9 -11 30 -15 48 -3 18 -11 32 -16 32
-5 0 -9 7 -9 15 0 8 -4 23 -9 33 -5 9 -13 28 -18 42 -6 14 -15 36 -20 50 -13
32 -62 140 -74 162 -5 10 -9 27 -9 38 0 11 -4 20 -10 20 -5 0 -10 7 -10 15 0
8 -4 23 -9 33 -39 75 -61 127 -61 143 0 10 -4 19 -10 19 -5 0 -10 9 -10 19 0
11 -4 23 -10 26 -5 3 -10 15 -10 26 0 10 -4 19 -10 19 -5 0 -10 8 -10 18 0 9
-11 37 -25 61 -14 23 -25 49 -25 57 0 8 -4 14 -10 14 -5 0 -10 7 -10 15 0 8
-4 23 -9 33 -50 95 -81 163 -81 176 0 9 -4 16 -10 16 -5 0 -10 6 -10 13 0 7
-25 61 -55 122 -30 60 -55 115 -55 122 0 7 -4 13 -10 13 -5 0 -10 8 -10 18 0
10 -4 22 -9 28 -19 21 -81 147 -81 165 0 10 -4 19 -10 19 -5 0 -10 5 -10 12 0
24 -176 378 -271 543 -19 33 -43 78 -54 100 l-20 40 -1538 3 c-1076 1 -1537
-1 -1537 -9z m2860 -8778 c-9 -20 -8 -22 5 -18 9 4 15 1 15 -7 0 -8 6 -16 14
-19 8 -3 16 -29 20 -69 16 -157 19 -178 27 -178 5 0 9 -11 9 -24 0 -14 4 -27
9 -31 6 -3 18 -32 28 -65 9 -33 21 -60 25 -60 4 0 8 -7 8 -15 0 -8 5 -15 10
-15 6 0 10 -7 10 -15 0 -8 4 -23 9 -33 11 -23 41 -145 41 -170 0 -11 5 -22 10
-24 6 -2 12 -19 14 -38 5 -51 22 -87 56 -120 16 -16 30 -34 30 -40 0 -5 5 -10
10 -10 6 0 10 -9 10 -20 0 -23 2 -23 -38 -9 -22 8 -36 7 -52 -1 -29 -15 -59
-20 -64 -11 -7 10 -101 6 -195 -8 -69 -11 -75 -10 -93 8 -10 12 -18 35 -18 56
0 20 -7 47 -16 61 -13 19 -14 28 -6 36 15 15 23 6 31 -34 4 -19 13 -33 21 -33
19 0 14 36 -7 52 -11 9 -17 35 -21 88 -2 41 -8 75 -13 75 -4 0 -8 19 -8 43 0
63 -12 137 -22 137 -5 0 -9 15 -9 33 0 18 -5 38 -11 44 -15 15 -7 129 9 126 6
-2 12 6 12 17 0 17 -5 19 -24 14 -14 -3 -31 -2 -38 2 -7 5 -17 9 -22 9 -12 0
-32 81 -30 123 1 42 14 55 14 14 0 -22 5 -32 15 -32 8 0 15 -9 15 -19 0 -30
11 -51 26 -51 27 0 7 98 -37 182 -7 13 -5 16 7 11 10 -4 17 2 21 16 6 25 11
26 34 5 25 -23 61 0 52 35 -6 22 -4 24 24 18 40 -8 73 2 74 22 0 10 4 7 10 -9
7 -17 7 -32 -1 -49z m-1975 -401 c-8 -9 -15 -26 -15 -37 0 -16 5 -20 20 -16
11 3 20 9 20 14 0 5 7 6 15 3 8 -4 15 -1 15 5 0 6 3 10 8 10 18 -3 26 2 13 10
-9 6 -10 11 -2 15 5 4 18 -8 27 -26 9 -18 20 -35 24 -38 8 -5 20 -111 24 -205
2 -33 6 -70 10 -81 3 -12 9 -39 12 -60 2 -22 9 -40 14 -42 6 -2 10 -17 10 -32
0 -16 5 -32 10 -35 6 -3 10 -35 10 -70 0 -34 6 -96 14 -136 16 -83 35 -219 41
-292 l3 -49 -43 45 c-24 25 -46 42 -50 39 -9 -10 -75 -9 -75 1 0 4 -11 0 -24
-8 -23 -15 -25 -15 -35 2 -8 14 -12 16 -22 6 -7 -7 -25 -13 -40 -13 -15 0 -31
-5 -34 -10 -5 -8 -52 -4 -63 6 -2 1 1 19 8 39 9 28 9 39 0 50 -10 12 -9 15 4
15 10 0 16 9 16 25 0 14 4 25 8 25 5 0 15 -11 22 -25 22 -41 33 -30 26 28 -4
28 -11 79 -15 112 -4 33 -9 50 -9 39 -1 -12 -9 -27 -17 -34 -16 -13 -18 -9
-15 27 1 20 -10 35 -54 71 -17 14 -22 72 -6 72 6 0 10 -13 10 -30 0 -16 3 -30
8 -30 17 1 50 48 56 83 7 36 26 52 26 22 0 -8 5 -15 10 -15 6 0 10 2 10 4 0 2
3 11 6 20 4 11 1 16 -10 16 -11 0 -16 9 -16 28 -1 23 -2 24 -11 10 -5 -10 -17
-18 -25 -18 -13 0 -14 9 -9 54 11 89 -11 120 -55 76 -23 -23 -32 -25 -29 -7 5
37 -3 77 -17 92 -15 14 -15 18 0 41 9 13 14 30 10 36 -4 6 -1 9 7 6 8 -3 15
-17 16 -32 4 -52 14 -44 37 31 6 18 4 20 -14 16 -13 -4 -20 -1 -20 10 0 8 -7
20 -15 27 -12 10 -12 14 0 26 7 8 18 14 24 14 5 0 11 12 13 28 2 20 9 28 28
30 13 2 31 13 39 24 10 15 16 17 21 8 6 -9 11 -6 20 10 12 23 13 23 26 5 12
-16 12 -21 -1 -35z"/>
<path d="M9284 13963 c-34 -79 -69 -148 -76 -151 -5 -2 -8 -10 -8 -18 0 -8 -9
-34 -20 -56 -11 -23 -20 -45 -20 -50 0 -4 -12 -33 -26 -65 -14 -32 -30 -69
-36 -83 -6 -14 -14 -33 -19 -42 -5 -10 -9 -27 -9 -38 0 -11 -4 -20 -8 -20 -4
0 -14 -21 -21 -47 -7 -27 -22 -68 -34 -93 -29 -63 -47 -112 -47 -132 0 -10 -4
-18 -8 -18 -4 0 -14 -21 -21 -47 -13 -49 -34 -104 -51 -135 -6 -10 -10 -27
-10 -37 0 -11 -4 -23 -10 -26 -5 -3 -10 -17 -10 -30 0 -13 -4 -27 -10 -30 -5
-3 -10 -17 -10 -30 0 -13 -4 -27 -10 -30 -5 -3 -10 -19 -10 -36 0 -16 -4 -29
-10 -29 -5 0 -10 -8 -10 -17 0 -10 -7 -31 -15 -47 -8 -15 -15 -37 -15 -47 0
-10 -4 -21 -10 -24 -5 -3 -10 -17 -10 -31 0 -13 -4 -32 -9 -42 -5 -9 -15 -37
-21 -62 -7 -25 -23 -74 -36 -110 -13 -36 -24 -73 -24 -82 0 -9 -4 -20 -10 -23
-5 -3 -10 -17 -10 -31 0 -13 -4 -32 -9 -42 -5 -9 -17 -44 -26 -77 -9 -33 -25
-88 -36 -122 -10 -34 -19 -73 -19 -87 0 -14 -4 -27 -9 -30 -5 -3 -11 -23 -14
-43 -7 -46 -17 -93 -52 -243 -15 -63 -29 -134 -32 -157 -3 -24 -9 -43 -14 -43
-5 0 -9 -22 -9 -49 0 -28 -4 -52 -9 -55 -5 -3 -11 -23 -14 -43 -3 -21 -17 -90
-32 -153 -15 -63 -29 -133 -32 -155 -3 -22 -9 -44 -14 -49 -5 -6 -9 -27 -9
-47 0 -21 -4 -40 -9 -43 -5 -3 -11 -23 -14 -43 -7 -54 -44 -221 -57 -256 -5
-17 -10 -43 -10 -58 0 -15 -4 -31 -10 -34 -5 -3 -10 -23 -10 -44 0 -20 -4 -41
-9 -46 -5 -6 -11 -30 -14 -55 -3 -25 -13 -76 -22 -115 -9 -38 -21 -95 -25
-125 -5 -30 -14 -80 -20 -110 -6 -30 -13 -77 -16 -105 -3 -27 -9 -59 -14 -70
-5 -11 -11 -38 -13 -60 -3 -22 -12 -76 -22 -120 -17 -85 -29 -143 -45 -240 -6
-33 -15 -84 -20 -112 -6 -29 -14 -77 -19 -105 -5 -29 -17 -82 -26 -118 -10
-36 -19 -88 -22 -116 -5 -50 -3 -53 40 -95 60 -60 73 -69 97 -69 11 0 28 -4
38 -9 9 -5 37 -15 62 -22 54 -16 70 -29 180 -141 47 -47 117 -107 155 -132 39
-26 75 -50 80 -55 11 -8 26 -12 115 -32 47 -10 111 -6 168 13 38 11 147 -5
196 -29 16 -8 50 -38 77 -67 50 -54 154 -116 195 -116 13 0 33 -4 46 -9 113
-44 138 -58 138 -81 0 -16 19 -32 65 -55 22 -11 42 -23 45 -26 3 -3 39 -11 80
-19 42 -7 84 -21 96 -32 11 -10 26 -18 32 -18 7 0 12 -7 12 -15 0 -8 4 -15 8
-15 27 0 47 -170 22 -185 -6 -3 -10 -50 -10 -106 0 -59 -4 -99 -10 -99 -6 0
-10 -38 -10 -94 0 -53 -4 -98 -10 -101 -5 -3 -10 -19 -10 -35 0 -16 -4 -31 -9
-34 -4 -3 -11 -36 -15 -73 -3 -37 -13 -97 -22 -133 -8 -36 -19 -128 -25 -205
-14 -206 -19 -248 -32 -273 -9 -18 -8 -28 3 -45 10 -17 13 -69 12 -237 -1
-132 -6 -216 -12 -218 -6 -2 -10 -19 -10 -38 0 -19 -4 -34 -8 -34 -4 0 -14
-39 -21 -87 -7 -49 -16 -92 -20 -98 -3 -5 -7 -32 -7 -60 -1 -27 -7 -68 -13
-90 -25 -82 -25 -85 -2 -85 32 0 25 -24 -20 -69 -29 -31 -39 -47 -34 -61 4
-11 10 -20 15 -20 5 0 4 -11 -2 -25 -6 -14 -17 -25 -25 -25 -7 0 -13 -7 -13
-16 0 -9 -9 -27 -20 -41 -16 -21 -18 -29 -8 -41 8 -9 14 -10 16 -3 5 16 22 13
22 -4 0 -8 -4 -15 -8 -15 -14 0 -36 -84 -23 -88 12 -4 5 -50 -10 -66 -5 -6 -9
-17 -10 -25 0 -9 -11 -43 -25 -76 l-24 -60 4 47 c4 54 -13 80 -39 58 -19 -16
-15 -72 8 -95 9 -9 17 -21 17 -26 0 -13 -18 -11 -22 3 -3 7 -12 -3 -22 -22
-13 -26 -15 -48 -10 -86 4 -32 2 -54 -4 -58 -6 -4 -8 -21 -5 -40 4 -27 1 -36
-15 -45 -15 -8 -22 -8 -26 2 -3 8 -9 7 -20 -7 -8 -10 -19 -15 -25 -12 -5 4
-12 2 -16 -4 -11 -17 -25 -11 -25 10 0 11 -8 24 -17 27 -10 4 -22 12 -26 20
-10 16 -26 16 -60 1 -29 -14 -47 -46 -47 -84 0 -39 -26 -91 -49 -99 -12 -3
-21 -15 -21 -26 0 -12 -7 -19 -19 -19 -11 0 -23 -9 -27 -22 -8 -26 -31 -51
-61 -67 -13 -6 -23 -19 -23 -29 0 -19 -45 -72 -60 -72 -6 0 -10 -5 -10 -12 0
-6 -20 -31 -45 -55 -25 -23 -45 -49 -45 -57 0 -8 -9 -18 -20 -21 -12 -4 -20
-15 -20 -28 0 -23 -17 -41 -63 -72 -21 -14 -42 -48 -112 -186 -5 -10 -13 -19
-17 -19 -12 0 -9 -38 4 -46 12 -8 26 -10 103 -20 57 -7 85 -27 85 -61 0 -21 5
-23 43 -23 24 0 48 -5 55 -12 7 -7 65 -10 186 -9 113 1 176 -2 181 -8 8 -15
78 -14 93 1 6 6 62 13 139 16 123 4 183 18 183 42 0 6 34 10 78 10 80 0 72 -3
230 74 23 12 42 24 42 28 0 5 6 8 13 8 18 0 179 158 197 193 7 15 29 45 47 67
18 21 33 42 33 47 0 5 13 24 30 43 16 19 29 41 30 48 0 7 11 30 25 52 14 22
25 46 25 54 0 8 5 18 10 21 6 3 10 19 10 34 0 15 3 30 6 33 3 4 7 119 8 258 2
172 7 255 14 262 7 7 12 23 12 37 0 15 7 35 15 45 8 11 15 32 15 47 0 15 4 30
9 34 6 3 15 39 22 80 7 41 17 75 21 75 4 0 8 25 8 55 l0 55 35 0 c24 0 35 -5
35 -15 0 -8 5 -15 10 -15 6 0 10 -9 10 -19 0 -11 5 -23 10 -26 6 -3 10 -17 10
-29 0 -13 7 -37 15 -52 8 -16 15 -39 15 -51 0 -12 5 -25 10 -28 6 -3 10 -22
10 -41 0 -19 5 -34 10 -34 6 0 10 -23 10 -51 0 -34 5 -56 17 -67 12 -12 18
-13 21 -4 2 6 12 12 23 12 52 0 102 53 124 131 13 48 15 85 10 201 -4 79 -10
152 -15 163 -4 11 -13 49 -20 85 -6 36 -16 69 -21 74 -5 6 -9 23 -9 38 0 15
-4 28 -9 28 -13 0 -32 133 -37 249 -2 56 -8 109 -14 116 -8 9 -8 15 0 20 11 7
8 70 -3 82 -4 3 -7 23 -7 44 0 21 -4 41 -10 44 -5 3 -10 43 -10 87 0 95 -19
258 -30 258 -18 0 -39 255 -24 289 4 9 6 20 5 26 -1 5 4 14 13 20 16 12 18 45
31 608 l6 227 109 0 c114 0 212 17 270 47 30 16 69 18 283 21 l247 4 1 -29 c4
-64 -4 -279 -10 -288 -10 -16 -30 -216 -37 -367 -4 -76 -10 -138 -15 -138 -7
0 -18 -164 -18 -270 -1 -19 -1 -96 -1 -170 0 -130 -5 -169 -20 -180 -16 -11
-19 -68 -5 -80 17 -14 21 -90 5 -90 -5 0 -10 -8 -10 -17 0 -15 -2 -16 -10 -3
-8 13 -10 12 -10 -3 0 -10 -7 -25 -15 -33 -20 -20 -20 -48 0 -40 12 4 14 -1
11 -29 -2 -19 -12 -44 -20 -57 -9 -12 -16 -30 -16 -40 0 -10 -4 -18 -10 -18
-5 0 -10 -18 -10 -40 0 -23 -5 -40 -11 -40 -8 0 -8 -4 -1 -12 6 -7 10 -15 11
-18 0 -3 3 -13 7 -24 4 -10 2 -27 -5 -38 -11 -17 -9 -22 6 -33 31 -21 76 -144
62 -166 -11 -18 -11 -66 0 -71 4 -1 11 -21 15 -43 5 -31 4 -36 -4 -22 -6 9
-15 15 -21 12 -14 -9 -11 -20 12 -49 17 -22 24 -25 31 -14 6 8 7 5 2 -12 -4
-14 -8 -54 -9 -90 -3 -78 -12 -117 -36 -148 -10 -13 -21 -36 -24 -52 -4 -17
-11 -30 -15 -30 -14 0 -51 -90 -55 -133 -2 -20 0 -37 3 -37 4 0 20 19 35 42
l27 42 0 -30 c0 -17 -12 -53 -26 -82 -14 -29 -24 -58 -21 -64 2 -7 -7 -30 -20
-50 -12 -21 -23 -44 -23 -53 0 -8 -4 -15 -10 -15 -5 0 -10 -11 -10 -25 0 -14
5 -25 10 -25 6 0 10 9 10 20 0 11 4 20 10 20 5 0 12 11 16 24 3 14 14 32 25
42 18 16 19 15 29 -10 16 -42 13 -59 -9 -53 -15 4 -22 -6 -37 -55 -9 -32 -21
-61 -26 -64 -4 -3 -8 -14 -8 -24 0 -11 -9 -24 -20 -30 -21 -11 -27 -44 -10
-55 17 -11 11 -50 -10 -63 -12 -7 -20 -23 -20 -40 l1 -27 19 24 c24 28 26 14
5 -35 -8 -20 -12 -40 -10 -45 10 -14 -25 -73 -37 -61 -6 6 -23 2 -48 -12 -33
-17 -43 -19 -59 -9 -22 14 -51 8 -51 -10 0 -7 -4 -7 -12 1 -34 34 -86 -4 -74
-54 5 -20 -2 -33 -36 -68 -24 -24 -42 -50 -40 -58 2 -9 -4 -23 -13 -31 -8 -9
-15 -22 -15 -29 0 -8 -7 -23 -15 -34 -8 -10 -15 -26 -15 -36 0 -9 -4 -18 -9
-20 -18 -7 -61 -89 -61 -117 0 -16 -4 -33 -10 -36 -5 -3 -10 -17 -10 -30 0
-13 -4 -27 -10 -30 -5 -3 -10 -15 -10 -26 0 -10 -4 -19 -10 -19 -5 0 -10 -7
-10 -15 0 -8 -4 -23 -9 -33 -5 -9 -14 -35 -21 -57 -7 -22 -17 -51 -23 -65 -6
-14 -12 -36 -13 -50 -2 -14 -7 -26 -11 -27 -4 -2 -7 -29 -7 -60 l2 -58 38 -8
c21 -4 43 -12 48 -17 6 -6 65 -10 133 -10 96 0 123 3 123 13 0 20 35 57 53 57
8 0 17 6 20 13 3 9 11 9 33 2 24 -9 30 -17 32 -48 2 -21 -1 -37 -7 -37 -6 0
-11 -5 -11 -11 0 -6 6 -9 14 -6 8 3 17 -1 20 -9 3 -8 13 -14 23 -14 10 0 31
-11 47 -25 30 -26 30 -26 217 -25 184 2 187 2 210 26 15 16 34 24 55 24 18 0
36 5 39 10 3 6 15 10 26 10 10 0 19 5 19 10 0 6 6 10 13 10 7 0 33 20 57 45
24 25 48 45 52 45 12 0 78 64 78 75 0 6 11 19 25 29 14 10 25 27 25 37 0 11 5
19 10 19 6 0 10 7 10 16 0 25 39 74 59 74 17 0 51 29 51 44 0 4 9 16 20 28 12
13 20 36 20 54 0 18 5 36 10 39 6 3 10 26 10 50 0 24 4 46 9 49 5 3 12 26 15
51 4 24 11 47 17 50 5 4 9 86 9 192 0 163 -2 188 -18 208 -16 20 -18 44 -15
251 2 126 5 235 8 242 7 18 25 15 25 -5 0 -10 9 -29 20 -43 11 -14 20 -31 20
-37 0 -7 4 -13 9 -13 5 0 13 -10 17 -22 4 -13 14 -30 23 -38 10 -8 25 -31 34
-51 17 -38 55 -69 82 -69 8 0 15 -5 15 -11 0 -6 10 -9 22 -7 31 4 38 39 44
220 4 111 1 192 -10 280 -9 68 -17 161 -20 208 -4 83 -8 108 -27 142 -5 10 -9
31 -9 48 0 17 -4 38 -9 48 -31 64 -41 94 -51 151 -6 35 -15 71 -19 80 -16 30
-31 87 -31 114 0 14 -4 28 -9 31 -4 3 -11 45 -15 93 -9 108 -23 210 -36 243
-5 14 -11 50 -14 80 -7 69 -21 150 -29 170 -4 8 -8 158 -11 333 -2 175 -7 321
-10 324 -11 11 -7 953 4 953 6 0 10 8 10 19 0 21 19 24 230 41 125 11 272 26
335 35 40 6 105 34 105 46 0 11 37 49 49 49 6 0 11 4 11 8 0 11 72 42 98 42
11 0 24 5 27 10 3 6 21 10 40 10 19 0 36 4 39 9 6 8 31 14 119 27 20 4 40 10
43 15 3 5 14 9 24 9 11 0 38 8 61 17 l42 16 -6 159 c-6 154 -5 158 16 173 12
8 32 15 44 15 13 0 31 4 41 9 9 5 28 13 42 18 54 21 180 88 180 95 0 4 5 8 10
8 14 0 59 51 60 68 0 6 5 12 10 12 12 0 13 97 1 104 -5 3 -11 23 -14 43 -3 21
-17 117 -31 213 -33 212 -52 370 -75 600 -5 52 -17 142 -26 200 -9 58 -21 137
-26 175 -9 68 -18 128 -39 238 -5 28 -12 70 -16 92 -3 22 -10 45 -14 50 -4 6
-11 30 -15 55 -4 25 -11 50 -16 56 -4 5 -9 46 -9 90 -1 75 -10 106 -51 186 -5
10 -9 29 -9 42 0 14 -4 27 -9 30 -5 3 -12 22 -16 42 -3 20 -10 44 -14 53 -15
28 -31 87 -31 109 0 11 -4 24 -10 27 -5 3 -10 17 -10 31 0 13 -4 32 -9 42 -5
9 -17 44 -27 77 -10 33 -22 64 -26 69 -4 6 -8 19 -8 29 0 20 -36 140 -51 169
-5 10 -9 27 -9 37 0 11 -4 23 -10 26 -5 3 -10 13 -10 22 0 8 -6 29 -14 46 -7
18 -23 66 -36 107 -12 41 -26 84 -30 95 -4 11 -15 45 -25 75 -10 30 -22 59
-26 64 -5 6 -9 20 -9 32 0 13 -4 26 -10 29 -5 3 -10 16 -10 29 0 12 -4 26 -8
32 -5 5 -14 29 -21 54 -15 52 -27 84 -47 123 -8 16 -14 37 -14 47 0 10 -4 22
-10 25 -5 3 -10 17 -10 30 0 13 -4 27 -10 30 -5 3 -10 17 -10 30 0 13 -4 27
-10 30 -5 3 -10 16 -10 29 0 12 -4 26 -9 32 -4 5 -16 34 -27 64 -10 30 -22 59
-26 64 -4 6 -8 18 -8 28 0 10 -4 27 -10 38 -5 11 -14 29 -20 40 -5 11 -10 26
-10 34 0 8 -11 36 -25 62 -14 26 -25 53 -25 61 0 7 -4 21 -9 31 -12 23 -23 50
-66 162 -20 52 -41 106 -47 120 -6 14 -15 36 -21 50 -5 14 -13 32 -17 41 -4 8
-20 47 -35 85 -15 38 -31 73 -36 78 -5 6 -9 20 -9 33 0 13 -4 23 -10 23 -5 0
-10 11 -10 25 0 14 -4 25 -8 25 -5 0 -14 19 -21 43 -7 23 -20 58 -28 77 -8 19
-18 44 -23 55 -4 11 -13 32 -20 48 l-13 27 -1603 0 -1603 0 -17 -37z m551
-8285 c32 15 45 9 38 -18 -3 -11 -2 -27 1 -36 5 -13 9 -14 21 -4 12 10 15 9
16 -6 0 -16 2 -16 9 4 10 25 30 30 30 8 0 -8 7 -22 17 -31 15 -15 14 -20 -7
-72 -12 -30 -25 -75 -28 -100 -4 -40 -3 -45 14 -41 11 2 20 13 23 28 1 14 6
27 11 30 4 3 12 23 18 45 l10 40 1 -46 c1 -67 -10 -139 -22 -139 -6 0 -18 -7
-28 -15 -15 -14 -18 -14 -32 -1 -13 14 -15 13 -20 -4 -3 -11 1 -24 9 -31 16
-13 20 -134 4 -144 -5 -3 -10 -26 -10 -51 0 -24 -4 -44 -9 -44 -11 0 -27 -119
-34 -272 -3 -61 -1 -78 10 -78 15 0 18 -46 3 -55 -5 -3 -10 -30 -10 -59 0 -45
-4 -56 -29 -80 -16 -15 -31 -23 -35 -18 -3 5 -24 10 -46 10 -22 0 -56 6 -75
13 -26 10 -40 10 -60 1 -15 -7 -25 -8 -25 -2 0 6 -11 10 -25 10 -14 0 -25 -4
-25 -10 0 -5 -9 -10 -20 -10 -11 0 -20 5 -20 10 0 6 -6 10 -14 10 -8 0 -16 6
-19 13 -3 9 -12 8 -35 -5 -37 -22 -42 -22 -42 -2 0 18 37 75 57 87 7 4 13 15
13 22 0 8 4 15 9 15 6 0 13 21 16 48 3 26 13 62 21 80 7 18 14 44 14 58 0 40
50 203 86 280 19 39 34 78 34 85 0 8 7 34 16 59 15 42 25 107 42 261 7 67 23
99 48 99 19 0 18 9 -3 32 -14 15 -14 19 -3 16 11 -2 14 5 11 26 l-3 29 25 -29
c22 -26 27 -27 52 -16z m1925 -458 c0 -14 6 -20 17 -18 11 2 23 -11 37 -39 24
-50 36 -54 37 -15 0 25 2 24 15 -12 7 -21 21 -44 30 -51 14 -10 14 -15 4 -32
-13 -20 -12 -26 15 -73 18 -31 19 -87 3 -92 -7 -3 -14 -19 -14 -36 -1 -18 -2
-42 -3 -54 l-2 -23 -9 22 c-6 14 -15 21 -24 17 -10 -4 -16 3 -19 23 -4 27 -4
27 -6 -4 0 -18 -6 -33 -11 -33 -7 0 -9 -25 -4 -75 7 -73 1 -88 -23 -64 -13 13
-54 -47 -46 -68 8 -20 23 -5 23 23 0 13 4 24 9 24 8 0 19 -39 24 -90 1 -17 8
-25 20 -24 12 1 17 -5 17 -22 0 -13 5 -24 11 -24 7 0 9 10 5 24 -7 28 1 56 16
56 7 0 8 -14 4 -37 -4 -21 -8 -44 -8 -51 -1 -8 -12 -19 -25 -25 -17 -8 -23
-18 -23 -43 0 -18 -5 -36 -11 -40 -18 -11 -30 18 -24 54 4 23 3 32 -4 27 -6
-3 -11 -37 -11 -76 0 -62 -11 -90 -23 -56 -2 6 -8 8 -13 4 -4 -4 -3 -17 4 -27
7 -11 12 -46 12 -77 l0 -58 23 32 c12 18 25 33 28 33 7 0 18 -49 20 -89 1 -15
3 -19 6 -10 7 27 41 30 58 6 8 -12 15 -27 15 -34 0 -7 7 -13 15 -13 20 0 35
-32 28 -59 -6 -22 -6 -22 -35 6 -16 15 -37 41 -45 57 -11 22 -17 26 -26 16 -9
-10 -9 -14 1 -17 20 -8 14 -21 -19 -37 -24 -12 -34 -13 -50 -3 -10 6 -20 19
-20 27 -1 12 -2 12 -6 -1 -4 -17 -43 -15 -43 2 0 5 -4 9 -10 9 -5 0 -10 -6
-10 -13 0 -15 -37 -20 -45 -6 -4 5 -11 7 -16 3 -5 -3 -30 -6 -54 -6 -35 0 -47
-5 -62 -25 -22 -31 -45 -55 -47 -51 -3 4 7 114 24 268 6 63 16 119 21 125 5 5
9 43 9 85 0 83 16 188 32 207 12 15 28 118 33 217 2 43 8 83 13 88 5 5 7 37 5
72 -4 49 -2 64 11 75 9 7 16 18 16 23 0 5 9 21 20 35 l20 26 0 -32 c0 -24 4
-31 19 -31 11 0 23 -4 26 -10 10 -16 32 -12 39 7 4 9 -1 25 -13 37 -14 16 -17
27 -10 44 10 28 29 29 29 2z"/>
<path d="M8464 2600 c-21 -21 -176 -33 -519 -40 -453 -10 -471 -13 -522 -70
-27 -29 -73 -116 -73 -136 0 -18 37 -18 47 0 11 18 91 56 119 56 13 0 26 5 29
10 3 6 31 10 62 10 l55 0 -5 -47 c-3 -27 -11 -73 -17 -103 -6 -30 -15 -77 -20
-105 -19 -103 -35 -174 -42 -181 -5 -4 -8 -22 -8 -41 0 -29 -3 -33 -28 -33
-69 0 -117 -30 -154 -97 -25 -44 -23 -53 17 -53 19 0 35 5 35 10 0 6 22 10 49
10 l50 0 -5 -37 c-3 -21 -8 -47 -11 -58 -3 -11 -9 -42 -13 -70 -19 -109 -33
-170 -41 -179 -5 -6 -9 -31 -9 -56 0 -25 -4 -50 -9 -55 -5 -6 -11 -30 -14 -55
-3 -25 -11 -72 -18 -105 -18 -92 -17 -176 3 -188 18 -12 108 5 167 30 30 13
33 18 28 47 -5 32 4 122 22 211 16 80 31 156 41 210 5 28 16 82 25 120 9 39
20 94 25 124 5 29 12 57 17 61 4 5 87 10 183 12 193 4 246 18 272 68 7 14 19
31 26 38 14 15 15 23 6 46 -4 11 -10 13 -18 7 -25 -20 -214 -42 -335 -39
l-106 3 2 25 c2 37 20 136 38 210 9 36 19 83 21 105 3 22 9 49 14 60 5 11 11
38 12 60 l3 40 225 6 c227 7 282 13 308 33 67 53 117 119 105 139 -6 10 -27 9
-39 -3z"/>
<path d="M11015 2599 c-16 -4 -42 -11 -57 -14 -37 -7 -128 -99 -128 -129 0 -8
-4 -18 -10 -21 -5 -3 -10 -17 -10 -30 0 -13 -4 -27 -10 -30 -5 -3 -10 -17 -10
-30 0 -36 -28 -45 -139 -45 -61 0 -101 -4 -101 -10 0 -5 -5 -10 -11 -10 -13 0
-51 -42 -69 -76 -15 -28 -6 -61 13 -46 20 16 225 26 242 12 10 -8 12 -17 6
-24 -9 -11 -17 -49 -28 -119 -3 -20 -9 -40 -14 -43 -5 -3 -9 -18 -9 -35 0 -16
-4 -29 -10 -29 -5 0 -10 -7 -10 -16 0 -8 -6 -22 -12 -29 -7 -8 -17 -20 -23
-27 -97 -126 -265 -294 -328 -327 -15 -8 -35 -21 -44 -30 -30 -27 -71 -51 -88
-51 -8 0 -15 -4 -15 -10 0 -5 -9 -10 -20 -10 -11 0 -20 -4 -20 -10 0 -5 -13
-10 -28 -10 -15 0 -33 -5 -39 -11 -6 -6 -52 -11 -105 -11 -83 0 -99 3 -131 23
-51 34 -96 120 -97 185 0 28 17 34 100 34 38 0 72 5 75 10 3 6 24 10 46 10 21
0 39 5 39 10 0 6 9 10 19 10 23 0 161 70 161 82 0 4 7 8 15 8 20 0 107 86 139
137 23 37 26 53 26 126 0 107 -27 150 -124 195 -43 21 -60 23 -145 19 -109 -6
-169 -15 -177 -28 -3 -5 -14 -9 -25 -9 -10 0 -19 -3 -19 -7 0 -5 -19 -17 -42
-28 -47 -22 -165 -136 -188 -181 -8 -16 -17 -31 -20 -34 -4 -4 -43 -82 -73
-147 -6 -13 -14 -23 -19 -23 -4 0 -8 -5 -8 -11 0 -20 -220 -229 -240 -229 -6
0 -10 -4 -10 -10 0 -5 -6 -10 -13 -10 -7 0 -22 -8 -33 -18 -30 -28 -72 -52
-89 -52 -8 0 -15 -3 -15 -8 0 -17 -115 -51 -185 -54 -106 -4 -129 1 -168 35
-20 17 -37 38 -37 45 0 6 -4 12 -8 12 -5 0 -17 28 -27 61 -18 60 -18 62 0 75
12 9 45 14 86 14 37 0 71 5 74 10 3 6 22 10 41 10 19 0 42 4 52 9 9 5 37 17
62 27 25 10 64 31 87 46 23 15 45 28 50 28 14 0 122 120 137 153 15 33 20 77
17 158 -1 38 -7 52 -38 86 -21 21 -60 49 -87 62 -43 20 -60 22 -145 18 -111
-6 -171 -15 -171 -28 0 -5 -11 -9 -25 -9 -14 0 -25 -3 -25 -7 0 -5 -18 -17
-40 -27 -45 -21 -139 -110 -166 -156 -10 -16 -22 -30 -26 -30 -4 0 -8 -7 -8
-15 0 -8 -4 -15 -10 -15 -5 0 -10 -7 -10 -15 0 -8 -9 -30 -19 -48 -35 -62 -54
-179 -49 -297 4 -97 8 -114 38 -176 34 -70 62 -101 109 -126 14 -7 28 -16 31
-19 3 -3 28 -13 57 -22 69 -22 151 -21 243 4 41 11 86 23 100 26 14 3 40 15
58 25 18 10 39 18 47 18 8 0 15 4 15 9 0 5 8 11 18 15 17 5 52 26 62 36 3 3
17 11 33 19 15 8 27 18 27 23 0 4 5 8 11 8 6 0 16 6 23 13 7 6 35 30 61 52 26
22 60 52 77 68 17 15 34 27 39 27 5 0 9 -19 9 -43 0 -47 31 -140 55 -167 8 -9
15 -20 15 -24 0 -11 48 -56 60 -56 5 0 10 -4 10 -10 0 -5 9 -10 20 -10 11 0
20 -4 20 -9 0 -5 13 -12 30 -16 16 -4 32 -11 35 -16 15 -24 240 0 297 31 10 6
29 10 43 10 14 0 25 5 25 10 0 6 9 10 19 10 11 0 23 5 26 10 3 5 15 10 26 10
10 0 19 5 19 10 0 6 5 10 10 10 9 0 85 48 125 77 6 5 28 21 50 38 22 16 54 43
72 60 17 16 44 42 60 56 15 14 38 38 50 54 13 16 25 26 28 23 4 -3 8 -30 9
-59 4 -72 23 -170 36 -183 5 -5 10 -18 10 -28 0 -10 5 -18 10 -18 6 0 10 -7
10 -15 0 -20 35 -55 88 -89 33 -20 54 -26 101 -26 33 0 63 4 66 10 3 6 16 10
29 10 12 0 31 7 42 15 10 8 25 15 32 15 18 0 118 70 170 118 60 56 87 132 66
186 -12 31 -64 8 -64 -28 0 -9 -5 -16 -10 -16 -6 0 -26 -15 -45 -32 -45 -43
-55 -50 -90 -67 -16 -7 -38 -17 -47 -22 -10 -5 -38 -9 -62 -9 -38 0 -50 5 -84
39 -36 35 -40 46 -47 105 -3 37 -4 101 0 144 6 78 49 282 66 314 5 10 9 31 9
47 0 17 5 33 10 36 6 3 10 19 10 35 0 58 9 60 263 60 294 0 357 6 391 35 14
12 26 26 26 31 0 5 7 22 15 37 21 40 11 57 -28 47 -96 -25 -159 -30 -368 -30
l-229 0 0 24 c0 14 5 28 10 31 6 3 10 17 10 31 0 13 5 24 10 24 6 0 10 6 10
14 0 14 61 128 82 153 24 30 -28 42 -97 22z m-1950 -495 c20 -21 25 -38 25
-76 0 -26 -4 -56 -9 -66 -5 -9 -14 -29 -21 -44 -14 -28 -33 -52 -66 -78 -58
-46 -94 -70 -103 -70 -6 0 -19 -4 -29 -9 -52 -26 -98 -39 -162 -44 -23 -2 -25
1 -23 42 1 24 7 49 13 55 5 5 10 20 10 32 0 13 5 26 10 29 6 3 10 15 10 26 0
10 3 19 8 19 4 0 14 15 21 33 19 41 100 122 154 153 60 34 130 33 162 -2z
m1046 16 c10 -6 19 -17 19 -25 0 -8 5 -15 10 -15 6 0 10 -24 10 -54 0 -30 -4
-58 -10 -61 -5 -3 -10 -15 -10 -26 0 -10 -4 -19 -10 -19 -5 0 -10 -5 -10 -11
0 -15 -68 -79 -115 -109 -61 -39 -125 -66 -172 -74 -18 -3 -46 -9 -63 -12 -28
-6 -30 -4 -30 22 1 40 44 168 69 203 12 16 21 32 21 35 0 8 49 64 74 85 10 9
23 21 30 26 43 38 145 57 187 35z"/>
<path d="M2620 2578 c-25 -5 -65 -12 -90 -15 -25 -3 -49 -9 -54 -14 -6 -5 -22
-9 -37 -9 -15 0 -31 -4 -34 -10 -3 -5 -17 -10 -30 -10 -13 0 -27 -4 -30 -10
-3 -5 -15 -10 -25 -10 -10 0 -20 -3 -22 -7 -1 -5 -16 -15 -33 -24 -91 -47
-123 -67 -155 -99 -60 -60 -87 -103 -93 -149 -7 -53 2 -141 14 -141 11 0 32
21 79 80 19 24 47 55 63 69 15 14 42 40 60 56 18 17 50 40 72 52 90 50 140 73
157 73 10 0 18 4 18 9 0 12 92 28 240 43 36 4 179 -12 220 -24 80 -24 140 -52
167 -77 12 -12 25 -21 29 -21 8 0 94 -87 94 -95 0 -3 11 -23 25 -45 14 -22 25
-48 25 -59 0 -11 5 -23 10 -26 14 -9 13 -250 -2 -294 -6 -20 -17 -50 -25 -68
-7 -17 -13 -36 -13 -42 0 -6 -4 -11 -10 -11 -5 0 -10 -7 -10 -15 0 -8 -4 -15
-10 -15 -5 0 -10 -9 -10 -20 0 -11 -4 -20 -10 -20 -5 0 -10 -5 -10 -10 0 -12
-147 -160 -159 -160 -4 0 -16 -8 -27 -17 -10 -10 -30 -23 -44 -29 -14 -6 -45
-21 -70 -32 -97 -44 -160 -58 -303 -68 -146 -11 -197 24 -183 124 10 63 34
201 56 312 6 30 15 78 20 105 5 28 16 82 25 120 9 39 19 90 22 115 3 25 9 49
14 54 5 6 9 47 9 92 0 79 -1 82 -25 88 -31 8 -135 -4 -135 -15 0 -5 -13 -9
-30 -9 -22 0 -30 -5 -30 -18 0 -10 5 -23 11 -29 11 -11 10 -33 -11 -145 -5
-32 -14 -82 -19 -110 -5 -29 -17 -84 -26 -123 -23 -100 -35 -164 -42 -215 -3
-25 -9 -49 -14 -55 -5 -5 -9 -30 -9 -56 0 -26 -4 -51 -10 -54 -5 -3 -11 -30
-11 -58 -1 -29 -4 -65 -8 -82 -6 -27 0 -60 24 -132 4 -13 15 -23 26 -23 11 0
19 -4 19 -8 0 -15 135 -35 191 -28 30 3 84 9 122 12 37 4 67 11 67 15 0 5 18
9 39 9 22 0 43 5 46 10 3 6 17 10 30 10 13 0 27 5 30 10 3 6 13 10 22 10 14 0
66 20 105 41 10 5 25 9 33 9 8 0 15 5 15 10 0 6 6 10 14 10 17 0 51 17 93 48
17 12 36 22 42 22 6 0 11 4 11 8 0 4 14 16 32 27 29 17 71 53 132 111 11 11
32 36 46 54 14 19 32 41 40 50 22 24 47 69 69 123 6 15 15 37 21 50 34 79 41
123 41 255 0 85 -4 138 -11 140 -5 2 -10 11 -10 19 0 48 -129 233 -162 233 -5
0 -16 6 -23 13 -27 23 -40 32 -70 46 -16 7 -38 17 -47 22 -10 5 -26 9 -36 9
-10 0 -22 4 -28 9 -5 5 -27 11 -49 14 -22 3 -62 10 -90 16 -62 12 -294 12
-355 -1z"/>
<path d="M4070 2221 c-8 -5 -33 -14 -55 -20 -66 -20 -118 -50 -170 -97 -27
-24 -53 -44 -57 -44 -4 0 -8 -7 -8 -15 0 -8 -4 -15 -8 -15 -5 0 -15 -12 -23
-27 -8 -16 -21 -36 -29 -45 -24 -26 -63 -112 -76 -163 -12 -51 -16 -317 -5
-328 6 -6 11 -18 11 -27 0 -47 81 -146 142 -173 118 -55 196 -61 313 -26 39
11 85 23 103 26 17 3 32 9 32 14 0 5 4 9 10 9 17 0 121 51 138 68 10 9 31 24
47 32 17 8 32 17 35 20 3 3 28 23 55 45 28 22 67 56 87 77 57 56 72 54 79 -12
3 -30 9 -64 13 -75 17 -45 51 -110 61 -117 5 -3 24 -18 40 -32 17 -14 35 -26
42 -26 6 0 13 -3 15 -7 7 -16 108 -43 161 -43 58 0 196 27 212 41 5 5 17 9 26
9 9 0 34 9 56 19 21 11 54 26 73 34 19 9 45 25 57 36 12 12 25 21 29 21 9 0
95 62 134 97 69 61 200 192 200 200 0 4 10 14 21 22 20 12 21 11 14 -11 -4
-12 -10 -43 -12 -68 -3 -25 -9 -49 -14 -55 -5 -5 -9 -29 -9 -53 0 -24 -5 -52
-10 -62 -6 -11 -11 -57 -13 -103 -2 -80 0 -86 23 -106 31 -25 85 -27 131 -4
43 21 49 30 49 75 0 20 5 40 10 43 6 3 10 17 10 31 0 13 5 24 10 24 6 0 10 9
10 19 0 11 5 23 10 26 6 3 10 15 10 26 0 10 4 19 8 19 4 0 21 26 37 58 17 31
33 58 38 60 4 2 7 12 7 22 0 10 4 20 8 22 11 4 82 102 82 112 0 4 6 13 13 20
6 7 21 26 32 41 34 49 143 155 160 155 8 0 15 4 15 9 0 15 65 33 93 26 14 -4
34 -18 44 -31 31 -42 61 -27 146 74 44 55 32 113 -31 150 -25 14 -124 16 -150
3 -9 -5 -32 -16 -49 -23 -18 -7 -33 -16 -33 -20 0 -5 -7 -8 -15 -8 -22 0 -194
-176 -243 -247 -23 -33 -47 -67 -55 -74 -7 -8 -20 -29 -28 -46 -7 -18 -17 -33
-21 -33 -5 0 -8 -5 -8 -11 0 -6 -11 -25 -25 -43 -14 -18 -25 -38 -25 -44 0 -7
-5 -12 -11 -12 -16 0 -9 59 36 270 30 143 30 152 1 183 -28 30 -61 34 -146 16
-56 -12 -61 -23 -38 -86 11 -30 10 -39 -10 -76 -12 -24 -34 -55 -47 -69 -14
-15 -25 -31 -25 -35 0 -5 -12 -22 -27 -39 -16 -17 -51 -58 -79 -90 -66 -76
-102 -112 -149 -149 -21 -16 -44 -36 -51 -42 -7 -7 -17 -13 -23 -13 -6 0 -11
-4 -11 -10 0 -5 -7 -10 -15 -10 -8 0 -15 -4 -15 -10 0 -5 -5 -10 -11 -10 -6 0
-17 -6 -24 -12 -35 -32 -45 -38 -60 -38 -8 0 -15 -4 -15 -10 0 -5 -9 -10 -19
-10 -11 0 -23 -4 -26 -10 -3 -5 -16 -10 -29 -10 -12 0 -27 -5 -33 -11 -15 -15
-216 -15 -221 0 -2 6 -8 11 -13 11 -15 0 -59 43 -59 57 0 7 -4 13 -8 13 -12 0
-34 84 -30 116 3 29 4 29 78 32 41 2 79 7 84 12 6 6 27 10 47 10 21 0 41 5 44
10 3 6 14 10 24 10 15 0 56 19 142 65 11 5 19 13 19 17 0 5 6 8 13 8 17 0 117
93 117 108 0 7 5 12 10 12 6 0 10 8 10 18 0 10 5 23 12 30 8 8 12 43 12 96 -1
71 -5 89 -25 117 -33 48 -45 59 -63 59 -9 0 -16 4 -16 8 0 29 -207 44 -279 21
-98 -31 -162 -64 -205 -105 -20 -19 -39 -34 -42 -34 -9 0 -34 -28 -34 -38 0
-6 -3 -12 -8 -14 -11 -5 -76 -99 -91 -133 -7 -16 -17 -38 -22 -47 -5 -10 -9
-25 -9 -33 0 -8 -4 -15 -10 -15 -5 0 -10 -5 -10 -11 0 -9 -60 -78 -121 -138
-55 -55 -120 -108 -182 -149 -40 -26 -73 -50 -75 -54 -2 -5 -12 -8 -23 -8 -10
0 -19 -4 -19 -10 0 -5 -9 -10 -19 -10 -11 0 -23 -4 -26 -10 -3 -5 -16 -10 -29
-10 -12 0 -27 -5 -33 -11 -16 -16 -195 -14 -223 2 -43 26 -61 44 -77 79 -8 19
-19 44 -25 56 -5 11 -8 36 -6 55 l3 34 80 3 c44 2 84 7 89 12 6 6 25 10 42 10
18 0 36 5 39 10 3 6 14 10 23 10 22 0 132 51 132 62 0 4 7 8 15 8 8 0 15 5 15
10 0 6 6 10 14 10 16 0 116 93 116 109 0 6 5 11 10 11 6 0 10 9 10 19 0 11 6
21 13 24 8 2 12 30 12 93 0 79 -3 93 -25 124 -54 77 -94 94 -230 97 -58 2
-112 -1 -120 -6z m173 -121 c77 -86 -24 -261 -195 -338 -56 -24 -74 -31 -108
-36 -19 -3 -47 -9 -62 -12 -27 -6 -28 -5 -28 39 0 25 5 49 10 52 6 3 10 19 10
36 0 16 5 29 10 29 6 0 10 7 10 15 0 16 49 97 63 103 4 2 7 7 7 12 0 12 68 80
79 80 5 0 11 4 13 8 7 17 76 42 119 42 38 0 50 -5 72 -30z m1056 1 c39 -55 20
-161 -41 -232 -27 -30 -127 -99 -145 -99 -7 0 -13 -4 -13 -10 0 -5 -11 -10
-24 -10 -14 0 -27 -4 -30 -9 -3 -4 -25 -11 -48 -14 -24 -4 -53 -10 -65 -13
-22 -6 -23 -3 -23 45 0 28 5 51 10 51 6 0 10 11 10 24 0 23 33 96 55 123 6 7
16 19 23 27 6 8 12 18 12 21 0 13 72 76 112 99 30 18 59 25 95 26 46 0 54 -3
72 -29z"/>
</g>
</svg>
